<svg width="48" height="48" viewBox="0 0 48 48" fill="none" xmlns="http://www.w3.org/2000/svg">
<path d="M0 40C0 44.4183 3.58172 48 8 48H40C44.4183 48 48 44.4183 48 40V8C48 3.58172 44.4183 0 40 0H8C3.58172 0 0 3.58172 0 8V40ZM36.768 27.36C38.3584 27.36 39.648 28.6496 39.648 30.24C39.648 31.8304 38.3584 33.12 36.768 33.12C35.1776 33.12 33.888 31.8304 33.888 30.24C33.888 28.6496 35.1776 27.36 36.768 27.36ZM8.352 27.68C8.352 27.504 8.496 27.36 8.672 27.36H30.752C31.104 27.36 31.392 27.648 31.392 28V32.48C31.392 32.832 31.104 33.12 30.752 33.12H8.672C8.496 33.12 8.352 32.976 8.352 32.8V27.68Z" fill="white"/>
</svg>
